<?xml version="1.0" encoding="utf-8"?>
<!-- Generator: Adobe Illustrator 24.0.2, SVG Export Plug-In . SVG Version: 6.00 Build 0)  -->
<svg version="1.1" id="Capa_1" xmlns="http://www.w3.org/2000/svg" xmlns:xlink="http://www.w3.org/1999/xlink" x="0px" y="0px"
	 viewBox="0 0 800 800" style="enable-background:new 0 0 800 800;" xml:space="preserve">
<style type="text/css">
	.st0{clip-path:url(#SVGID_2_);}
	.st1{fill:#7ED0EC;}
	.st2{fill:url(#b_3_);}
	.st3{fill:url(#b_4_);}
	.st4{fill:none;stroke:#FFFFFF;stroke-width:46.875;stroke-miterlimit:6.25;}
</style>
<g id="SVGRepo_tracerCarrier">
</g>
<g>
	<defs>
		<circle id="SVGID_1_" cx="400" cy="400" r="400"/>
	</defs>
	<clipPath id="SVGID_2_">
		<use xlink:href="#SVGID_1_"  style="overflow:visible;"/>
	</clipPath>
	<g id="SVGRepo_bgCarrier" class="st0">
		<path class="st1" d="M400,0L400,0c220.91,0,400,179.09,400,400l0,0c0,220.91-179.09,400-400,400l0,0C179.09,800,0,620.91,0,400
			l0,0C0,179.09,179.09,0,400,0z"/>
	</g>
	<g id="SVGRepo_iconCarrier" class="st0">
		<path id="b" d="M120,0h560c66.27,0,120,53.73,120,120v560c0,66.27-53.73,120-120,120H120C53.73,800,0,746.27,0,680V120
			C0,53.73,53.73,0,120,0z"/>
		<g>
			
				<radialGradient id="b_3_" cx="-307.215" cy="1107.9379" r="1" gradientTransform="matrix(800 0 0 -800 246092 887150.25)" gradientUnits="userSpaceOnUse">
				<stop  offset="0.1" style="stop-color:#FFDD55"/>
				<stop  offset="0.5" style="stop-color:#FF543E"/>
				<stop  offset="1" style="stop-color:#C837AB"/>
			</radialGradient>
			<path id="b_1_" class="st2" d="M120,0h560c66.27,0,120,53.73,120,120v560c0,66.27-53.73,120-120,120H120
				C53.73,800,0,746.27,0,680V120C0,53.73,53.73,0,120,0z"/>
		</g>
		<g>
			
				<linearGradient id="b_4_" gradientUnits="userSpaceOnUse" x1="-307.2304" y1="1109.0148" x2="-307.0304" y2="1108.0148" gradientTransform="matrix(800 0 0 -800 246092 887150.25)">
				<stop  offset="0.1" style="stop-color:#3771C8"/>
				<stop  offset="0.5" style="stop-color:#6600FF;stop-opacity:0"/>
			</linearGradient>
			<path id="b_2_" class="st3" d="M120,0h560c66.27,0,120,53.73,120,120v560c0,66.27-53.73,120-120,120H120
				C53.73,800,0,746.27,0,680V120C0,53.73,53.73,0,120,0z"/>
		</g>
		<g>
			<path class="st4" d="M285.94,159.37h228.13c69.9,0,126.56,56.66,126.56,126.56v228.12c0,69.9-56.66,126.56-126.56,126.56H285.94
				c-69.9,0-126.56-56.66-126.56-126.56V285.94C159.38,216.04,216.04,159.37,285.94,159.37z"/>
			<circle class="st4" cx="400" cy="400" r="112.5"/>
			<circle class="st4" cx="542.19" cy="257.81" r="9.38"/>
		</g>
	</g>
</g>
</svg>
